<svg xmlns="http://www.w3.org/2000/svg" viewBox="0 -20 600 800">
  <path fill="crimson" d="M98 -11q-29 7 -44.5 23.5t-23 39t-10 49.5t-5.5 56q4 13 10.5 22t5.5 25q11 32 20 62t12 62q6 9 12 12q8 57 2 117t-20 111q1 11 3 16.5t0 9.5q-2 9 6 9h16q0 18 -6.5 35.5t-12.5 40.5q8 18 11 35t11 31q32 -10 63 -23t61 -25.5t59 -24t57 -18.5q43 -31 88.5 -61.5 t83 -67t62.5 -83.5t29 -111q-2 -6 -3 -10l-2 -8t-1 -9v-14q-36 -63 -91 -106t-120 -76t-135.5 -60.5t-137.5 -58.5zM196 556q-9 0 -13 -4q12 -45 18 -85t6.5 -80t-4.5 -82t-14 -91q13 1 23 5t20.5 9t22 9t26.5 5q4 8 10.5 12.5t11.5 9.5q25 10 50 21t46 25t38 32t28 43 q-8 15 -19.5 25.5t-24 21t-24 22t-18.5 26.5q-16 2 -28 8.5t-23 13t-23.5 12.5t-29.5 7q-26 14 -47 19.5t-32 15.5z"/>
</svg>
